{"accessors":[{"bufferView":2,"componentType":5126,"count":48,"max":[1.8121600151062012,1.8121600151062012,3.6243200302124023],"min":[-1.8121600151062012,-1.8121600151062012,0],"type":"VEC3"},{"bufferView":2,"byteOffset":576,"componentType":5126,"count":48,"max":[0.9928498864173889,0.9928498864173889,1],"min":[-0.9928498864173889,-0.9928498864173889,-0.1193699836730957],"type":"VEC3"},{"bufferView":1,"componentType":5125,"count":102,"max":[47],"min":[0],"type":"SCALAR"},{"bufferView":2,"byteOffset":1152,"componentType":5126,"count":48,"max":[1.5166000127792358,1.5166000127792358,3.6243200302124023],"min":[-1.5166000127792358,-1.5166000127792358,0],"type":"VEC3"},{"bufferView":2,"byteOffset":1728,"componentType":5126,"count":48,"max":[0.9949219226837158,0.9949219226837158,0.10065019130706787],"min":[-0.9949219226837158,-0.9949219226837158,-1],"type":"VEC3"},{"bufferView":1,"byteOffset":408,"componentType":5125,"count":96,"max":[47],"min":[0],"type":"SCALAR"},{"bufferView":2,"byteOffset":2304,"componentType":5126,"count":24,"max":[1.8121600151062012,1.8121600151062012,3.6243200302124023],"min":[-1.8121600151062012,-1.8121600151062012,3.6243200302124023],"type":"VEC3"},{"bufferView":2,"byteOffset":2592,"componentType":5126,"count":24,"max":[0,0,1],"min":[0,0,1],"type":"VEC3"},{"bufferView":1,"byteOffset":792,"componentType":5125,"count":48,"max":[23],"min":[0],"type":"SCALAR"},{"bufferView":2,"byteOffset":2880,"componentType":5126,"count":16,"max":[1.8121600151062012,1.8121600151062012,3.6243200302124023],"min":[-1.8121600151062012,-1.8121600151062012,0],"type":"VEC3"},{"bufferView":2,"byteOffset":3072,"componentType":5126,"count":16,"max":[0.9928498864173889,0.9928498864173889,-0.1193699836730957],"min":[-0.9928498864173889,-0.9928498864173889,-0.1193699836730957],"type":"VEC3"},{"bufferView":1,"byteOffset":984,"componentType":5125,"count":24,"max":[15],"min":[0],"type":"SCALAR"},{"bufferView":2,"byteOffset":3264,"componentType":5126,"count":12,"max":[1.376420021057129,1.376420021057129,0],"min":[-1.376420021057129,-1.376420021057129,0],"type":"VEC3"},{"bufferView":2,"byteOffset":3408,"componentType":5126,"count":12,"max":[0,0,-1],"min":[0,0,-1],"type":"VEC3"},{"bufferView":1,"byteOffset":1080,"componentType":5125,"count":30,"max":[11],"min":[0],"type":"SCALAR"},{"bufferView":2,"byteOffset":3552,"componentType":5126,"count":16,"max":[1.8121600151062012,1.8121600151062012,3.6243200302124023],"min":[-1.8121600151062012,-1.8121600151062012,3.6243200302124023],"type":"VEC3"},{"bufferView":2,"byteOffset":3744,"componentType":5126,"count":16,"max":[0,0,1],"min":[0,0,1],"type":"VEC3"},{"bufferView":1,"byteOffset":1200,"componentType":5125,"count":24,"max":[15],"min":[0],"type":"SCALAR"},{"bufferView":2,"byteOffset":3936,"componentType":5126,"count":382,"max":[7.458950042724609,0.6520699858665466,1.2209199666976929],"min":[-7.458950042724609,-0.6833900213241577,-0.07751000672578812],"type":"VEC3"},{"bufferView":2,"byteOffset":8520,"componentType":5126,"count":382,"max":[0.648589015007019,1,1],"min":[-0.648589015007019,-1,-1],"type":"VEC3"},{"bufferView":1,"byteOffset":1296,"componentType":5125,"count":1026,"max":[381],"min":[0],"type":"SCALAR"},{"bufferView":2,"byteOffset":13104,"componentType":5126,"count":22,"max":[1.5121899843215942,0.6472100019454956,0.9883400201797485],"min":[-1.5121899843215942,-0.6785399913787842,0.40838000178337097],"type":"VEC3"},{"bufferView":2,"byteOffset":13368,"componentType":5126,"count":22,"max":[0.5464206337928772,0,1],"min":[-0.5464206337928772,0,0.8375110030174255],"type":"VEC3"},{"bufferView":1,"byteOffset":5400,"componentType":5125,"count":36,"max":[21],"min":[0],"type":"SCALAR"},{"bufferView":2,"byteOffset":13632,"componentType":5126,"count":76,"max":[2.0391600131988525,0.6520699858665466,0.8560100197792053],"min":[-2.0391600131988525,-0.6833900213241577,-0.31009000539779663],"type":"VEC3"},{"bufferView":2,"byteOffset":14544,"componentType":5126,"count":76,"max":[0.9199010729789734,0.39215049147605896,0.4166894853115082],"min":[-0.9199010729789734,-0.9164066314697266,-1],"type":"VEC3"},{"bufferView":1,"byteOffset":5544,"componentType":5125,"count":126,"max":[75],"min":[0],"type":"SCALAR"},{"bufferView":2,"byteOffset":15456,"componentType":5126,"count":32,"max":[2.0442299842834473,2.0442299842834473,0.32308998703956604],"min":[-2.0442299842834473,-2.0442299842834473,-0.3222399950027466],"type":"VEC3"},{"bufferView":2,"byteOffset":15840,"componentType":5126,"count":32,"max":[0.98021399974823,0.98021399974823,0.19794081151485443],"min":[-0.98021399974823,-0.98021399974823,0.19794081151485443],"type":"VEC3"},{"bufferView":1,"byteOffset":6048,"componentType":5125,"count":48,"max":[31],"min":[0],"type":"SCALAR"},{"bufferView":2,"byteOffset":16224,"componentType":5126,"count":72,"max":[2.0442299842834473,2.0442299842834473,0.16027000546455383],"min":[-2.0442299842834473,-2.0442299842834473,-0.3222399950027466],"type":"VEC3"},{"bufferView":2,"byteOffset":17088,"componentType":5126,"count":72,"max":[0.9994763135910034,0.9994763135910034,0.032359879463911057],"min":[-0.9994763135910034,-0.9994763135910034,-1],"type":"VEC3"},{"bufferView":1,"byteOffset":6240,"componentType":5125,"count":120,"max":[71],"min":[0],"type":"SCALAR"},{"bufferView":2,"byteOffset":17952,"componentType":5126,"count":16,"max":[1.9139100313186646,1.9139100313186646,0.32308998703956604],"min":[-1.9139100313186646,-1.9139100313186646,0.32308998703956604],"type":"VEC3"},{"bufferView":2,"byteOffset":18144,"componentType":5126,"count":16,"max":[0,0,1],"min":[0,0,1],"type":"VEC3"},{"bufferView":1,"byteOffset":6720,"componentType":5125,"count":24,"max":[15],"min":[0],"type":"SCALAR"},{"bufferView":2,"byteOffset":18336,"componentType":5126,"count":16,"max":[2.0442299842834473,2.0442299842834473,0.32308998703956604],"min":[-2.0442299842834473,-2.0442299842834473,-0.3222399950027466],"type":"VEC3"},{"bufferView":2,"byteOffset":18528,"componentType":5126,"count":16,"max":[0.98021399974823,0.98021399974823,0.19794081151485443],"min":[-0.98021399974823,-0.98021399974823,0.19794081151485443],"type":"VEC3"},{"bufferView":1,"byteOffset":6816,"componentType":5125,"count":24,"max":[15],"min":[0],"type":"SCALAR"},{"bufferView":2,"byteOffset":18720,"componentType":5126,"count":44,"max":[2.0442299842834473,2.0442299842834473,0.16027000546455383],"min":[-2.0442299842834473,-2.0442299842834473,-0.3222399950027466],"type":"VEC3"},{"bufferView":2,"byteOffset":19248,"componentType":5126,"count":44,"max":[0.9994763135910034,0.9994763135910034,0.032359879463911057],"min":[-0.9994763135910034,-0.9994763135910034,-1],"type":"VEC3"},{"bufferView":1,"byteOffset":6912,"componentType":5125,"count":78,"max":[43],"min":[0],"type":"SCALAR"},{"bufferView":2,"byteOffset":19776,"componentType":5126,"count":12,"max":[1.9139100313186646,1.9139100313186646,0.32308998703956604],"min":[-1.9139100313186646,-1.9139100313186646,0.32308998703956604],"type":"VEC3"},{"bufferView":2,"byteOffset":19920,"componentType":5126,"count":12,"max":[0,0,1],"min":[0,0,1],"type":"VEC3"},{"bufferView":1,"byteOffset":7224,"componentType":5125,"count":30,"max":[11],"min":[0],"type":"SCALAR"},{"bufferView":4,"componentType":5126,"count":9,"max":[1,1,0,0,0,1,0,0,1,0,1,0,0,0,0,1],"min":[0,-1,0,0,0,0,-1,0,-1,0,0,0,0,-5.25,0,1],"type":"MAT4"},{"bufferView":0,"componentType":5123,"count":382,"max":[8,8,4,4],"min":[1,3,4,4],"type":"VEC4"},{"bufferView":3,"componentType":5126,"count":382,"max":[1,0.5,0,0],"min":[0,0,0,0],"type":"VEC4"},{"bufferView":5,"componentType":5126,"count":17,"max":[1.25],"min":[0.041669998317956924],"type":"SCALAR"},{"bufferView":7,"componentType":5126,"count":17,"max":[0,0,1,1],"min":[0,0,0,0],"type":"VEC4"},{"bufferView":5,"byteOffset":68,"componentType":5126,"count":30,"max":[1.25],"min":[0.041669998317956924],"type":"SCALAR"},{"bufferView":6,"componentType":5126,"count":30,"max":[0,0,7.583179950714111],"min":[0,0,-2.998300075531006],"type":"VEC3"},{"bufferView":5,"byteOffset":188,"componentType":5126,"count":1,"max":[0.041669998317956924],"min":[0.041669998317956924],"type":"SCALAR"},{"bufferView":7,"byteOffset":272,"componentType":5126,"count":1,"max":[0,0,0,1],"min":[0,0,0,1],"type":"VEC4"},{"bufferView":5,"byteOffset":192,"componentType":5126,"count":1,"max":[0.041669998317956924],"min":[0.041669998317956924],"type":"SCALAR"},{"bufferView":7,"byteOffset":288,"componentType":5126,"count":1,"max":[0.5,0.5,-0.5,0.5],"min":[0.5,0.5,-0.5,0.5],"type":"VEC4"},{"bufferView":5,"byteOffset":196,"componentType":5126,"count":30,"max":[1.25],"min":[0.041669998317956924],"type":"SCALAR"},{"bufferView":7,"byteOffset":304,"componentType":5126,"count":30,"max":[0.0021299999207258224,0.029190000146627426,0.19672000408172607,1],"min":[-0.0019600000232458115,-0.00007000000186963007,-0.3664500117301941,0.9304400086402893],"type":"VEC4"},{"bufferView":5,"byteOffset":316,"componentType":5126,"count":30,"max":[1.25],"min":[0.041669998317956924],"type":"SCALAR"},{"bufferView":7,"byteOffset":784,"componentType":5126,"count":30,"max":[0.004550000187009573,0.0790100023150444,0.40911999344825745,0.9969199895858765],"min":[-0.0028299998957663774,-0.00023999999393709004,-0.6501200199127197,0.7598199844360352],"type":"VEC4"},{"bufferView":5,"byteOffset":436,"componentType":5126,"count":30,"max":[1.25],"min":[0.041669998317956924],"type":"SCALAR"},{"bufferView":7,"byteOffset":1264,"componentType":5126,"count":30,"max":[0.0025400000158697367,0.07660999894142151,0.3538399934768677,0.9999600052833557],"min":[-0.0012199999764561653,-0.0006600000197067857,-0.36274999380111694,0.931879997253418],"type":"VEC4"},{"bufferView":5,"byteOffset":556,"componentType":5126,"count":1,"max":[0.041669998317956924],"min":[0.041669998317956924],"type":"SCALAR"},{"bufferView":7,"byteOffset":1744,"componentType":5126,"count":1,"max":[0.5,-0.5,0.5,0.5],"min":[0.5,-0.5,0.5,0.5],"type":"VEC4"},{"bufferView":5,"byteOffset":560,"componentType":5126,"count":30,"max":[1.25],"min":[0.041669998317956924],"type":"SCALAR"},{"bufferView":7,"byteOffset":1760,"componentType":5126,"count":30,"max":[0.0021299999207258224,0.00007000000186963007,0.3664500117301941,1],"min":[-0.0019600000232458115,-0.029190000146627426,-0.19672000408172607,0.9304400086402893],"type":"VEC4"},{"bufferView":5,"byteOffset":680,"componentType":5126,"count":30,"max":[1.25],"min":[0.041669998317956924],"type":"SCALAR"},{"bufferView":7,"byteOffset":2240,"componentType":5126,"count":30,"max":[0.004550000187009573,0.00023999999393709004,0.6501200199127197,0.996969997882843],"min":[-0.0028299998957663774,-0.0790100023150444,-0.40365999937057495,0.7598199844360352],"type":"VEC4"},{"bufferView":5,"byteOffset":800,"componentType":5126,"count":30,"max":[1.25],"min":[0.041669998317956924],"type":"SCALAR"},{"bufferView":7,"byteOffset":2720,"componentType":5126,"count":30,"max":[0.0025400000158697367,0.0006600000197067857,0.36274999380111694,0.9999899864196777],"min":[-0.0012199999764561653,-0.07660999894142151,-0.3538399934768677,0.931879997253418],"type":"VEC4"},{"bufferView":5,"byteOffset":920,"componentType":5126,"count":30,"max":[1.25],"min":[0.041669998317956924],"type":"SCALAR"},{"bufferView":6,"byteOffset":360,"componentType":5126,"count":30,"max":[0,0,7.141449928283691],"min":[0,0,-3.243920087814331],"type":"VEC3"},{"bufferView":5,"byteOffset":1040,"componentType":5126,"count":1,"max":[0.041669998317956924],"min":[0.041669998317956924],"type":"SCALAR"},{"bufferView":7,"byteOffset":3200,"componentType":5126,"count":1,"max":[0,0,0,1],"min":[0,0,0,1],"type":"VEC4"},{"bufferView":5,"byteOffset":1044,"componentType":5126,"count":25,"max":[1.25],"min":[0.041669998317956924],"type":"SCALAR"},{"bufferView":6,"byteOffset":720,"componentType":5126,"count":25,"max":[1.9118499755859375,1.9118499755859375,1.3167200088500977],"min":[0.8714699745178223,0.8714699745178223,0.27358999848365784],"type":"VEC3"},{"bufferView":5,"byteOffset":1144,"componentType":5126,"count":22,"max":[1.25],"min":[0.041669998317956924],"type":"SCALAR"},{"bufferView":6,"byteOffset":1020,"componentType":5126,"count":22,"max":[0,0,7.780600070953369],"min":[0,0,0],"type":"VEC3"},{"bufferView":5,"byteOffset":1232,"componentType":5126,"count":1,"max":[0.041669998317956924],"min":[0.041669998317956924],"type":"SCALAR"},{"bufferView":7,"byteOffset":3216,"componentType":5126,"count":1,"max":[0,0,0,1],"min":[0,0,0,1],"type":"VEC4"},{"bufferView":5,"byteOffset":1236,"componentType":5126,"count":29,"max":[1.25],"min":[0.041669998317956924],"type":"SCALAR"},{"bufferView":6,"byteOffset":1284,"componentType":5126,"count":29,"max":[2.006890058517456,2.006890058517456,1.534209966659546],"min":[0.8073400259017944,0.8073400259017944,0.24829000234603882],"type":"VEC3"}],"animations":[{"channels":[{"sampler":0,"target":{"node":10,"path":"rotation"}},{"sampler":1,"target":{"node":11,"path":"translation"}},{"sampler":2,"target":{"node":11,"path":"rotation"}},{"sampler":3,"target":{"node":14,"path":"rotation"}},{"sampler":4,"target":{"node":15,"path":"rotation"}},{"sampler":5,"target":{"node":16,"path":"rotation"}},{"sampler":6,"target":{"node":17,"path":"rotation"}},{"sampler":7,"target":{"node":18,"path":"rotation"}},{"sampler":8,"target":{"node":19,"path":"rotation"}},{"sampler":9,"target":{"node":20,"path":"rotation"}},{"sampler":10,"target":{"node":21,"path":"rotation"}},{"sampler":11,"target":{"node":26,"path":"translation"}},{"sampler":12,"target":{"node":26,"path":"rotation"}},{"sampler":13,"target":{"node":26,"path":"scale"}},{"sampler":14,"target":{"node":3,"path":"translation"}},{"sampler":15,"target":{"node":3,"path":"rotation"}},{"sampler":16,"target":{"node":3,"path":"scale"}}],"name":"Take 01","samplers":[{"input":48,"interpolation":"LINEAR","output":49},{"input":50,"interpolation":"LINEAR","output":51},{"input":52,"interpolation":"LINEAR","output":53},{"input":54,"interpolation":"LINEAR","output":55},{"input":56,"interpolation":"LINEAR","output":57},{"input":58,"interpolation":"LINEAR","output":59},{"input":60,"interpolation":"LINEAR","output":61},{"input":62,"interpolation":"LINEAR","output":63},{"input":64,"interpolation":"LINEAR","output":65},{"input":66,"interpolation":"LINEAR","output":67},{"input":68,"interpolation":"LINEAR","output":69},{"input":70,"interpolation":"LINEAR","output":71},{"input":72,"interpolation":"LINEAR","output":73},{"input":74,"interpolation":"LINEAR","output":75},{"input":76,"interpolation":"LINEAR","output":77},{"input":78,"interpolation":"LINEAR","output":79},{"input":80,"interpolation":"LINEAR","output":81}]}],"asset":{"extras":{"author":"Lilly! (https://sketchfab.com/SheepShape)","license":"CC-BY-4.0 (http://creativecommons.org/licenses/by/4.0/)","source":"https://sketchfab.com/3d-models/day-16-gifts-819c61011c8d414f92058fb2fd6e0815","title":"Day 16 - Gifts"},"generator":"Sketchfab-7.27.0","version":"2.0"},"bufferViews":[{"buffer":0,"byteLength":3056,"byteOffset":0,"byteStride":8,"name":"shortBufferViews","target":34962},{"buffer":0,"byteLength":7344,"byteOffset":3056,"name":"floatBufferViews","target":34963},{"buffer":0,"byteLength":20064,"byteOffset":10400,"byteStride":12,"name":"floatBufferViews","target":34962},{"buffer":0,"byteLength":6112,"byteOffset":30464,"byteStride":16,"name":"floatBufferViews","target":34962},{"buffer":0,"byteLength":576,"byteOffset":36576,"byteStride":64,"name":"floatBufferViews"},{"buffer":0,"byteLength":1352,"byteOffset":37152,"name":"floatBufferViews"},{"buffer":0,"byteLength":1632,"byteOffset":38504,"byteStride":12,"name":"floatBufferViews"},{"buffer":0,"byteLength":3232,"byteOffset":40136,"byteStride":16,"name":"floatBufferViews"}],"buffers":[{"byteLength":43368,"uri":"data:application/octet-stream;base64,"}],"extensionsUsed":["KHR_materials_unlit"],"materials":[{"doubleSided":true,"emissiveFactor":[0,0,0],"extensions":{"KHR_materials_unlit":{}},"name":"Ribbon","pbrMetallicRoughness":{"baseColorFactor":[0.4019685984,0.0396830365,0.0560307838,1],"metallicFactor":0,"roughnessFactor":1}},{"doubleSided":true,"emissiveFactor":[0,0,0],"extensions":{"KHR_materials_unlit":{}},"name":"Ribbon_h","pbrMetallicRoughness":{"baseColorFactor":[0.7105534673,0.0965711325,0.090321973,1],"metallicFactor":0,"roughnessFactor":1}},{"doubleSided":true,"emissiveFactor":[0,0,0],"extensions":{"KHR_materials_unlit":{}},"name":"Ribbon_s","pbrMetallicRoughness":{"baseColorFactor":[0.2395517975,0.0161552262,0.0335835069,1],"metallicFactor":0,"roughnessFactor":1}},{"doubleSided":true,"emissiveFactor":[0,0,0],"extensions":{"KHR_materials_unlit":{}},"name":"Box.001","pbrMetallicRoughness":{"baseColorFactor":[0.8688850999,0.6688098311,0.1797846705,1],"metallicFactor":0,"roughnessFactor":1}},{"doubleSided":true,"emissiveFactor":[0,0,0],"extensions":{"KHR_materials_unlit":{}},"name":"Box_s.001","pbrMetallicRoughness":{"baseColorFactor":[0.6038155556,0.2641780674,0.1285796165,1],"metallicFactor":0,"roughnessFactor":1}},{"doubleSided":true,"emissiveFactor":[0,0,0],"extensions":{"KHR_materials_unlit":{}},"name":"Box_h.001","pbrMetallicRoughness":{"baseColorFactor":[1,0.9974398017,0.235012427,1],"metallicFactor":0,"roughnessFactor":1}},{"doubleSided":true,"emissiveFactor":[0,0,0],"extensions":{"KHR_materials_unlit":{}},"name":"Ribbon.001","pbrMetallicRoughness":{"baseColorFactor":[0.4019685984,0.0396830365,0.0560307838,1],"metallicFactor":0,"roughnessFactor":1}},{"doubleSided":true,"emissiveFactor":[0,0,0],"extensions":{"KHR_materials_unlit":{}},"name":"Ribbon_s.001","pbrMetallicRoughness":{"baseColorFactor":[0.2395517975,0.0161552262,0.0335835069,1],"metallicFactor":0,"roughnessFactor":1}},{"doubleSided":true,"emissiveFactor":[0,0,0],"extensions":{"KHR_materials_unlit":{}},"name":"Ribbon_h.001","pbrMetallicRoughness":{"baseColorFactor":[0.7105534673,0.0965711325,0.090321973,1],"metallicFactor":0,"roughnessFactor":1}},{"doubleSided":true,"emissiveFactor":[0,0,0],"extensions":{"KHR_materials_unlit":{}},"name":"material","pbrMetallicRoughness":{"baseColorFactor":[0.8688850999,0.6688098311,0.1797846705,1],"metallicFactor":0,"roughnessFactor":1}},{"doubleSided":true,"emissiveFactor":[0,0,0],"extensions":{"KHR_materials_unlit":{}},"name":"Box_s","pbrMetallicRoughness":{"baseColorFactor":[0.6038155556,0.2641780674,0.1285796165,1],"metallicFactor":0,"roughnessFactor":1}},{"doubleSided":true,"emissiveFactor":[0,0,0],"extensions":{"KHR_materials_unlit":{}},"name":"Box_h","pbrMetallicRoughness":{"baseColorFactor":[1,0.9974398017,0.235012427,1],"metallicFactor":0,"roughnessFactor":1}}],"meshes":[{"name":"Cube_0","primitives":[{"attributes":{"NORMAL":1,"POSITION":0},"indices":2,"material":9,"mode":4}]},{"name":"Cube_1","primitives":[{"attributes":{"NORMAL":4,"POSITION":3},"indices":5,"material":10,"mode":4}]},{"name":"Cube_2","primitives":[{"attributes":{"NORMAL":7,"POSITION":6},"indices":8,"material":11,"mode":4}]},{"name":"Cube_3","primitives":[{"attributes":{"NORMAL":10,"POSITION":9},"indices":11,"material":0,"mode":4}]},{"name":"Cube_4","primitives":[{"attributes":{"NORMAL":13,"POSITION":12},"indices":14,"material":2,"mode":4}]},{"name":"Cube_5","primitives":[{"attributes":{"NORMAL":16,"POSITION":15},"indices":17,"material":1,"mode":4}]},{"name":"Cube.001","primitives":[{"attributes":{"JOINTS_0":46,"NORMAL":19,"POSITION":18,"WEIGHTS_0":47},"indices":20,"material":0,"mode":4}]},{"name":"Cube.001","primitives":[{"attributes":{"NORMAL":22,"POSITION":21},"indices":23,"material":1,"mode":4}]},{"name":"Cube.001","primitives":[{"attributes":{"NORMAL":25,"POSITION":24},"indices":26,"material":2,"mode":4}]},{"name":"Cube.003_0","primitives":[{"attributes":{"NORMAL":28,"POSITION":27},"indices":29,"material":3,"mode":4}]},{"name":"Cube.003_1","primitives":[{"attributes":{"NORMAL":31,"POSITION":30},"indices":32,"material":4,"mode":4}]},{"name":"Cube.003_2","primitives":[{"attributes":{"NORMAL":34,"POSITION":33},"indices":35,"material":5,"mode":4}]},{"name":"Cube.003_3","primitives":[{"attributes":{"NORMAL":37,"POSITION":36},"indices":38,"material":6,"mode":4}]},{"name":"Cube.003_4","primitives":[{"attributes":{"NORMAL":40,"POSITION":39},"indices":41,"material":7,"mode":4}]},{"name":"Cube.003_5","primitives":[{"attributes":{"NORMAL":43,"POSITION":42},"indices":44,"material":8,"mode":4}]}],"nodes":[{"children":[1],"name":"RootNode (gltf orientation matrix)","rotation":[-0.7071067811865475,0,0,0.7071067811865476]},{"children":[2],"name":"RootNode (model correction matrix)"},{"children":[3,10],"name":"Root"},{"children":[4,5,6,7,8,9],"name":"Cube"},{"mesh":0,"name":"Cube_0"},{"mesh":1,"name":"Cube_1"},{"mesh":2,"name":"Cube_2"},{"mesh":3,"name":"Cube_3"},{"mesh":4,"name":"Cube_4"},{"mesh":5,"name":"Cube_5"},{"children":[11,26],"name":"Empt_Rotate","translation":[0,0,4.180099964141846]},{"children":[12],"name":"Empty"},{"children":[13,23,22],"matrix":[1,0,0,0,0,1,0,0,0,0,1,0,0,0,-0.08005000000000001,1],"name":"Armature"},{"children":[14,18],"name":"Armature_rootJoint"},{"children":[15],"name":"Bone.L_Armature","rotation":[0.5,0.5,-0.5,0.5],"scale":[1,1,1],"translation":[0,0,0]},{"children":[16],"name":"Bone.002.L_Armature","rotation":[0,0,0,1],"scale":[1,1,1],"translation":[0,1.75,0]},{"children":[17],"name":"Bone.001.L_Armature","rotation":[0,0,0,1],"scale":[1,1,1],"translation":[0,1.75,0]},{"name":"Bone.003.L_Armature","rotation":[0,0,0,1],"scale":[1,1,1],"translation":[0,1.75,0]},{"children":[19],"name":"Bone.R_Armature","rotation":[0.5,-0.5,0.5,0.5],"scale":[1,1,1],"translation":[0,0,0]},{"children":[20],"name":"Bone.002.R_Armature","rotation":[0,0,0,1],"scale":[1,1,1],"translation":[0,1.75,0]},{"children":[21],"name":"Bone.001.R_Armature","rotation":[0,0,0,1],"scale":[1,1,1],"translation":[0,1.75,0]},{"name":"Bone.003.R_Armature","rotation":[0,0,0,1],"scale":[1,1,1],"translation":[0,1.75,0]},{"children":[24,25],"matrix":[1,0,0,0,0,1,0,0,0,0,1,0,0,0,0.23258,1],"name":"Cube.001"},{"mesh":6,"name":"Cube.001_0","skin":0},{"mesh":7,"name":"Cube.001"},{"mesh":8,"name":"Cube.001"},{"children":[27,28,29,30,31,32],"name":"Cube.003","translation":[0,0,-0.5798400044441223]},{"mesh":9,"name":"Cube.003_0"},{"mesh":10,"name":"Cube.003_1"},{"mesh":11,"name":"Cube.003_2"},{"mesh":12,"name":"Cube.003_3"},{"mesh":13,"name":"Cube.003_4"},{"mesh":14,"name":"Cube.003_5"}],"scene":0,"scenes":[{"name":"OSG_Scene","nodes":[0]}],"skins":[{"inverseBindMatrices":45,"joints":[13,14,15,16,17,18,19,20,21],"skeleton":13}]}